<svg width="284" height="51" viewBox="0 0 284 51" fill="none" xmlns="http://www.w3.org/2000/svg">
<path d="M34.1806 27.5103C33.9392 26.3582 33.4772 25.4057 32.8108 24.5385C31.4453 22.7603 29.2333 21.6363 26.2393 21.6363C21.585 21.6363 18.7233 24.7549 17.8758 28.0422C17.1147 25.7243 15.0778 24.1605 12.9262 23.4998C14.5457 22.3349 15.3935 20.6687 15.3935 18.7665C15.3935 17.0008 14.6486 15.3936 13.4017 14.3476C11.5723 12.8132 9.07871 12.5 6.00611 12.5C3.64752 12.5 2.75774 12.5 0 12.5V38.0897C1.70175 38.0897 3.45093 38.0822 5.15609 38.0897C6.67319 38.0966 8.15479 38.0876 9.5364 38.0331C13.9095 37.8602 16.9028 35.6882 17.8608 32.4267C18.1898 33.8768 18.8226 35.059 19.6489 35.9561C21.3329 37.7851 23.7744 38.5 26.2332 38.5C29.2606 38.5 31.4494 37.6337 32.9446 36.3062L30.8045 33.8242C29.7275 34.6254 28.3433 35.0977 26.7888 35.0977C23.7401 35.0883 22.3957 33.1849 22.2753 31.3548H34.1805V38.0897H38.6398V12.6278H34.1805V27.5103H34.1806ZM4.58219 15.9572L5.82129 15.9565C7.01791 15.9565 7.96298 16.0835 8.64354 16.3441C9.98726 16.8585 10.626 17.9128 10.626 19.2297C10.6275 20.3432 10.1958 22.093 7.82185 22.5714C7.42474 22.6513 6.85272 22.6956 6.04451 22.6956C4.90318 22.6956 4.58219 22.6956 4.58219 22.6956V15.9572V15.9572ZM9.62343 34.3444C9.06522 34.4434 8.38261 34.4654 7.82817 34.4654C6.15082 34.4654 4.58185 34.4654 4.58185 34.4654L4.58202 26.1171C4.58202 26.1171 6.28598 26.1171 7.48669 26.1171C8.40343 26.1171 9.44083 26.2188 10.0352 26.3724C12.073 26.8999 13.2436 28.3416 13.2436 30.2507C13.2436 32.2275 12.1656 33.8924 9.62343 34.3444ZM22.3573 28.1732C22.7503 26.3092 24.1468 24.9676 26.2049 24.9676C28.2652 24.9676 29.6357 26.1696 29.9908 28.1732H22.3573Z" fill="white"/>
<path d="M46.0001 12.6279H41.6167V38.0896H46.0001V12.6279Z" fill="white"/>
<line x1="62.5" y1="8" x2="62.5" y2="43" stroke="white" stroke-opacity="0.4"/>
<g clip-path="url(#clip0_5_10331)">
<path fill-rule="evenodd" clip-rule="evenodd" d="M269.218 11.5C261.359 11.5 254.992 17.5732 254.992 25.0688C254.992 31.6693 259.925 37.1555 266.473 38.3865C267.576 38.5984 268.279 38.7627 268.859 39.4785C269.56 38.1952 269.72 35.4811 269.72 33.9495V31.3707C269.72 30.4747 270.185 30.3001 271.046 30.7827C272.628 31.6693 274.278 32.5868 274.278 32.5868C274.333 32.0847 274.771 31.6609 275.72 31.8737C276.603 32.0847 277.59 32.3031 277.59 32.3031C277.59 32.3031 277.059 31.1028 276.821 30.5717C276.383 29.6011 276.8 29.1363 277.222 29.0019C277.222 29.0019 276.619 28.5931 276.221 28.3149C275.372 27.7185 275.569 27.1389 276.399 26.7843C277.53 26.3036 278.938 25.6661 278.938 25.6661C278.488 25.4067 277.965 24.6675 278.553 23.8163C279.128 22.9669 279.998 21.7919 279.998 21.7919C279.998 21.7919 278.466 21.8012 277.443 21.7919C276.519 21.7732 276.289 21.0396 276.298 20.5095C276.298 20.5095 274.79 21.58 273.712 22.3089C272.806 22.9193 271.977 22.322 272.116 21.2711C272.332 19.6237 272.526 17.8019 272.526 17.8019C271.964 18.1771 271.004 18.1687 270.578 17.2447L269.218 14.2953C269.218 14.2953 268.499 15.8829 267.868 17.2447C267.449 18.1687 266.482 18.1771 265.925 17.8019C265.925 17.8019 266.114 19.6237 266.332 21.2711C266.473 22.322 265.641 22.9193 264.738 22.3089C263.659 21.5809 262.148 20.5095 262.148 20.5095C262.157 21.0396 261.934 21.7732 261.007 21.7919C259.983 21.8012 258.451 21.7919 258.451 21.7919C258.451 21.7919 259.325 22.9679 259.906 23.8163C260.486 24.6675 259.96 25.4067 259.521 25.6661C259.521 25.6661 260.923 26.3036 262.052 26.7843C262.882 27.1389 263.085 27.7185 262.222 28.3149C261.83 28.5931 261.216 29.0019 261.216 29.0019C261.65 29.1363 262.063 29.6011 261.625 30.5717C261.393 31.1028 260.857 32.304 260.857 32.304C260.857 32.304 261.845 32.0847 262.731 31.8737C263.678 31.6609 264.121 32.0847 264.175 32.5868L267.406 30.7836C268.261 30.3001 268.725 30.4737 268.729 31.3707V33.5883C268.729 34.8688 268.5 36.2707 268.013 37.0192C261.943 36.3528 256.924 31.4892 256.912 25.0688C256.903 18.4608 262.422 13.0988 269.218 13.0988C276.014 13.0988 281.522 18.4608 281.522 25.0688C281.522 31.2456 276.731 36.294 270.589 36.9613V38.5816C277.808 37.9255 283.452 32.1229 283.452 25.0688C283.453 17.5732 277.078 11.5 269.219 11.5" fill="white"/>
<path fill-rule="evenodd" clip-rule="evenodd" d="M152.284 14.6377C158.876 14.6377 163.681 18.8265 163.681 25.4018C163.681 31.8577 158.957 36.3405 152.284 36.3405C145.636 36.3405 140.917 31.8484 140.917 25.4018C140.917 18.8741 145.678 14.6377 152.284 14.6377ZM190.716 15.1912V31.4526H198.813V35.7861H185.637V15.1912H190.716ZM91.6823 15.1912L100.37 35.7861H94.7556L93.0677 31.5898H85.0912L83.4961 35.7861H78L86.7763 15.1912H91.6823ZM114.241 31.5898L119.317 35.7861H107.287C102.294 35.7842 101.562 31.5898 101.562 31.5898H114.241ZM215.03 15.1912L223.718 35.7861H218.104L216.416 31.5898H208.44L206.844 35.7861H201.349L210.125 15.1912H215.03ZM174.526 15.1912C179.198 15.1912 182.706 16.9113 182.706 21.5332C182.706 26.0598 179.147 27.9508 174.658 28.018L174.407 28.0198H171.897V35.7861H166.847V15.1912H174.526ZM232.056 15.1912L240.563 28.6312H240.653L240.532 15.1912H245.506V35.7861H239.694L231.156 22.3181H231.066L231.187 35.7861H226.213V15.1912H232.056ZM130.418 15.1912C134.901 15.1912 138.421 16.999 138.421 21.4165C138.421 24.1512 136.867 26.0496 134.321 26.8961L134.079 26.9726L139.543 35.7861H133.637L129.082 27.5877H127.336V35.7861H122.403V15.1912H130.418ZM152.284 19.1158C148.923 19.1158 146.32 21.6144 146.32 25.4308C146.32 29.1146 148.729 31.8614 152.284 31.8614C155.69 31.8614 158.278 29.2761 158.278 25.4308C158.278 21.8794 155.886 19.1158 152.284 19.1158ZM113.373 23.3905L118.448 27.5877H107.288C102.295 27.5849 101.563 23.3905 101.563 23.3905H113.373ZM89.1407 20.6894L86.5453 27.5868H91.6786L89.1407 20.6894ZM212.488 20.6894L209.894 27.5868H215.026L212.488 20.6894ZM174.608 19.1186H171.898V24.0056H174.311C176.292 24.0056 177.992 23.4157 177.992 21.4576C177.992 19.6469 176.448 19.1186 174.608 19.1186ZM130.047 19.1186H127.336V24.0056H129.749C131.73 24.0056 133.43 23.4157 133.43 21.4585C133.43 19.6469 131.886 19.1186 130.047 19.1186ZM114.241 15.1912L119.317 19.3884H107.287C102.294 19.3856 101.562 15.1912 101.562 15.1912H114.241Z" fill="white"/>
</g>
<defs>
<clipPath id="clip0_5_10331">
<rect width="206" height="28" fill="white" transform="translate(78 11.5)"/>
</clipPath>
</defs>
</svg>
